<svg xmlns="http://www.w3.org/2000/svg" viewBox="0 0 512 512" role="img" aria-labelledby="t">
  <title id="t">Search Iwara</title>
  <defs>
    <linearGradient id="tile" x1="0" y1="0" x2="1" y2="1">
      <stop offset="0" stop-color="#d6146f"/>
      <stop offset="0.55" stop-color="#e2345a"/>
      <stop offset="1" stop-color="#f26a2c"/>
    </linearGradient>
    <radialGradient id="glow" cx="0.22" cy="0.16" r="0.75">
      <stop offset="0" stop-color="#fff" stop-opacity="0.26"/>
      <stop offset="1" stop-color="#fff" stop-opacity="0"/>
    </radialGradient>
  </defs>
  <rect width="512" height="512" rx="116" fill="url(#tile)"/>
  <rect width="512" height="512" rx="116" fill="url(#glow)"/>
  <g transform="translate(221.46 221.46) scale(1.1392)"><path d="M86.6 86.6 L151.6 151.6" stroke="#fff" stroke-width="54" stroke-linecap="round"/><path d="M0.0 -118.0 L118.0 0.0 L0.0 118.0 L-118.0 0.0 Z M0.0 -50.1 L-50.1 0.0 L0.0 50.1 L50.1 0.0 Z" fill="#fff" fill-opacity="0.8" fill-rule="evenodd"/><path d="M0.0 -118.0 L0.0 -50.1 L-50.1 0.0 L0.0 50.1 L0.0 118.0 L-118.0 0.0 Z" fill="#fff"/><path d="M-13.4 -12.5 Q-13.4 -18.5 -8.4 -15.5 L14.3 -3.0 Q19.3 0.0 14.3 3.0 L-8.4 15.5 Q-13.4 18.5 -13.4 12.5 Z" fill="#fff"/></g>
</svg>
